<?xml version="1.0" encoding="iso-8859-1"?>
<!-- Generator: Adobe Illustrator 19.0.0, SVG Export Plug-In . SVG Version: 6.00 Build 0)  -->
<svg xmlns="http://www.w3.org/2000/svg" xmlns:xlink="http://www.w3.org/1999/xlink" version="1.1" id="Layer_1" x="0px" y="0px" viewBox="0 0 512 512" style="enable-background:new 0 0 512 512;" xml:space="preserve" width="512" height="512">
<g>
	<g>
		<path style="fill:#5DDEF5;" d="M316,196c0,26.73,5.09,38.81-41.82,70c47.3,31.45,41.82,44.56,41.82,70H196    c0-26.73-5.09-38.81,41.82-70c-47.3-31.45-41.82-44.56-41.82-70H316z"/>
		<path style="fill:#697C86;" d="M316,336c11.05,0,20,8.95,20,20c0,11.04-8.96,20-20,20H196c-11.05,0-20-8.95-20-20    c0-11.04,8.96-20,20-20H316z"/>
		<path style="fill:#697C86;" d="M316,156c11.05,0,20,8.95,20,20c0,11.04-8.96,20-20,20H196c-11.05,0-20-8.95-20-20    c0-11.04,8.96-20,20-20H316z"/>
		<path style="fill:#63D9B8;" d="M256,10v50c104.77,0,196,91.23,196,196s-91.23,196-196,196    C141.454,452,55.859,350.918,60.57,246.01c2.427-54.895,28.862-103.259,71.51-139.93L156,130V50H76l20.59,20.59    C47.15,114.55,10,184.64,10,256c0,132.55,113.45,246,246,246c132.749,0,246-113.734,246-246C502,123.45,388.55,10,256,10z"/>
	</g>
	<g>
		<path d="M60,246c-5.52,0-10,4.48-10,10s4.48,10,10,10c0.26,0,0.51-0.01,0.76-0.03c5.17-0.39,9.24-4.71,9.24-9.97    c0-5.33-4.17-9.69-9.43-9.99C60.38,246.01,60.19,246,60,246z"/>
		<path d="M0,256c0,138.013,117.815,256,256,256c132.251,0,256-111.196,256-256C512,117.638,393.829,0,256,0    c-5.523,0-10,4.477-10,10v50c0,5.523,4.477,10,10,10c99.084,0,186,86.916,186,186c0,97.259-84.929,187.125-188.443,185.981    c-83.223-1.387-162.108-66.525-179.587-148.292c-1.155-5.401-6.472-8.84-11.87-7.689c-5.401,1.155-8.843,6.469-7.688,11.87    c19.069,89.204,103.545,162.521,198.864,164.109C366.213,463.211,462,366.16,462,256c0-106-89.031-199.973-196-205.73V20.22    C389.504,25.673,492,131.424,492,256c0,127.925-108.075,236-236,236S20,383.925,20,256c0-64.105,31.894-132.287,83.235-177.937    c2.058-1.83,3.27-4.427,3.351-7.18c0.081-2.752-0.977-5.417-2.924-7.364L100.142,60H146v45.858l-6.849-6.849    c-3.7-3.699-9.625-3.922-13.592-0.511c-34.574,29.734-62.502,75.124-71.149,115.635c-1.153,5.401,2.291,10.714,7.692,11.867    c5.397,1.155,10.714-2.292,11.867-7.692c7.217-33.81,29.513-71.542,57.766-98.43l17.193,17.194    c2.861,2.859,7.162,3.714,10.898,2.167c3.737-1.548,6.173-5.194,6.173-9.239V50c0-5.523-4.477-10-10-10H76    c-4.044,0-7.691,2.437-9.239,6.173s-0.692,8.038,2.167,10.898l13.247,13.246C31.265,119.466,0,189.667,0,256z"/>
		<path d="M185.875,204.237c-0.393,21.696,1.739,37.365,34.516,61.753c-32.725,24.249-34.831,39.379-34.496,61.748    C174.512,331.802,166,342.762,166,356c0,16.542,13.458,30,30,30h120c16.577,0,30-13.425,30-30c0-12.99-8.3-24.074-19.875-28.237    c0.393-21.696-1.739-37.365-34.516-61.753c32.725-24.249,34.831-39.379,34.496-61.748C337.488,200.198,346,189.238,346,176    c0-16.542-13.458-30-30-30H196c-16.577,0-30,13.425-30,30C166,188.99,174.3,200.074,185.875,204.237z M316,366H196    c-5.514,0-10-4.486-10-10c0-5.521,4.478-10,10-10h120c5.514,0,10,4.486,10,10C326,361.521,321.522,366,316,366z M268.644,257.673    c-2.788,1.854-4.463,4.979-4.463,8.327c0,3.348,1.675,6.474,4.463,8.327c36.311,24.143,37.822,34.084,37.515,51.673H205.867    c-0.259-18.163,1.269-27.589,37.49-51.673c2.788-1.854,4.463-4.979,4.463-8.327c0-3.348-1.675-6.474-4.463-8.327    c-36.311-24.143-37.822-34.084-37.515-51.673h100.292C306.392,224.163,304.865,233.589,268.644,257.673z M196,166h120    c5.514,0,10,4.486,10,10c0,5.521-4.478,10-10,10H196c-5.514,0-10-4.486-10-10C186,170.479,190.478,166,196,166z"/>
	</g>
</g>















</svg>
